<svg width="1213" height="952" viewBox="0 0 1213 952" fill="none" xmlns="http://www.w3.org/2000/svg">
<g clip-path="url(#clip0_5404_12080)">
<rect width="1213" height="952" rx="31" fill="white"/>
<path d="M166.891 65.5562H163.508V54H166.891V65.5562ZM166.891 111.788H163.508V88.6719H166.891V111.788ZM166.891 158.016H163.508V134.9H166.891V158.016ZM166.891 204.244H163.508V181.128H166.891V204.244ZM166.891 250.472H163.508V227.36H166.891V250.472ZM166.891 296.7H163.508V273.588H166.891V296.7ZM166.891 342.932H163.508V319.816H166.891V342.932ZM166.891 389.16H163.508V366.044H166.891V389.16ZM166.891 435.388H163.508V412.272H166.891V435.388ZM166.891 481.616H163.508V458.504H166.891V481.616ZM166.891 527.844H163.508V504.732H166.891V527.844ZM166.891 574.076H163.508V550.96H166.891V574.076ZM166.891 620.304H163.508V597.188H166.891V620.304ZM166.891 654.976H163.508V643.416H166.891V654.976Z" fill="#D2D2D2"/>
<path d="M1178.39 655.363V658.745H58.3203V655.363H1178.39Z" fill="#D2D2D2"/>
<path d="M54.9297 57.0332H58.3126L58.3126 657.943H54.9297L54.9297 57.0332Z" fill="#D2D2D2"/>
<path d="M1126.25 696.991C1126.41 696.833 1126.66 696.754 1127.01 696.754C1127.36 696.722 1127.59 696.785 1127.72 696.943C1127.88 697.543 1128.1 698.285 1128.38 699.169C1128.67 700.053 1129.06 700.764 1129.57 701.3C1129.82 701.553 1130.21 701.806 1130.75 702.058C1131.29 702.311 1132.01 702.437 1132.93 702.437C1133.53 702.437 1134.13 702.327 1134.73 702.106C1135.36 701.853 1135.88 701.49 1136.29 701.016C1136.73 700.511 1136.95 699.88 1136.95 699.122C1136.95 698.427 1136.83 697.843 1136.57 697.37C1136.32 696.864 1135.85 696.391 1135.15 695.949C1134.46 695.507 1133.45 695.017 1132.12 694.48C1130.29 693.723 1128.97 692.902 1128.14 692.018C1127.32 691.102 1126.91 689.776 1126.91 688.039C1126.91 687.029 1127.23 686.129 1127.86 685.34C1128.49 684.519 1129.31 683.887 1130.32 683.445C1131.33 682.972 1132.42 682.735 1133.59 682.735C1134.82 682.735 1135.97 682.861 1137.05 683.114C1138.15 683.335 1139.07 683.508 1139.8 683.635C1139.76 684.424 1139.72 685.245 1139.65 686.098C1139.62 686.95 1139.57 687.803 1139.51 688.655C1139.38 688.781 1139.13 688.86 1138.75 688.892C1138.41 688.892 1138.15 688.829 1138 688.702C1137.81 687.345 1137.41 686.366 1136.81 685.766C1136.24 685.135 1135.64 684.74 1135.01 684.582C1134.41 684.393 1133.94 684.298 1133.59 684.298C1132.8 684.298 1132.04 684.566 1131.32 685.103C1130.62 685.608 1130.28 686.35 1130.28 687.329C1130.28 688.623 1130.7 689.555 1131.55 690.123C1132.44 690.66 1133.59 691.197 1135.01 691.734C1136.62 692.333 1137.95 693.139 1138.99 694.149C1140.03 695.128 1140.55 696.422 1140.55 698.033C1140.55 699.201 1140.28 700.18 1139.75 700.969C1139.24 701.727 1138.58 702.327 1137.76 702.769C1136.97 703.211 1136.15 703.526 1135.3 703.716C1134.44 703.905 1133.69 704 1133.02 704C1132.14 704 1131.35 703.953 1130.65 703.858C1129.99 703.763 1129.34 703.637 1128.71 703.479C1128.55 703.416 1128.4 703.384 1128.24 703.384C1128.08 703.384 1127.92 703.384 1127.77 703.384C1127.45 703.384 1127.06 703.432 1126.58 703.526C1126.58 702.516 1126.55 701.474 1126.49 700.401C1126.42 699.296 1126.34 698.159 1126.25 696.991Z" fill="black"/>
<path d="M1118.58 701.253H1118.48L1117.54 702.011C1116.49 702.8 1115.58 703.321 1114.79 703.574C1114 703.858 1113.19 704 1112.37 704C1110.73 704 1109.33 703.637 1108.16 702.911C1106.99 702.153 1106.41 700.811 1106.41 698.885C1106.41 697.275 1107.13 695.87 1108.58 694.67C1110.07 693.47 1111.95 692.586 1114.22 692.018L1118.29 691.023C1118.48 690.96 1118.58 690.77 1118.58 690.455C1118.58 688.655 1118.37 687.329 1117.96 686.476C1117.55 685.592 1117.05 685.008 1116.45 684.724C1115.85 684.44 1115.28 684.298 1114.74 684.298C1113.86 684.298 1113.01 684.456 1112.18 684.771C1111.36 685.056 1110.95 685.561 1110.95 686.287C1110.95 686.54 1110.95 686.745 1110.95 686.903C1110.98 687.061 1111.02 687.171 1111.05 687.234C1111.14 687.424 1111.19 687.708 1111.19 688.087C1111.19 688.402 1110.98 688.75 1110.57 689.129C1110.2 689.508 1109.66 689.697 1108.96 689.697C1107.86 689.697 1107.31 689.129 1107.31 687.992C1107.31 687.076 1107.69 686.224 1108.44 685.434C1109.2 684.645 1110.18 683.998 1111.38 683.493C1112.58 682.987 1113.83 682.735 1115.12 682.735C1116.29 682.735 1117.41 682.94 1118.48 683.351C1119.59 683.729 1120.49 684.503 1121.18 685.671C1121.91 686.808 1122.27 688.497 1122.27 690.739V697.701C1122.27 698.775 1122.34 699.722 1122.46 700.543C1122.59 701.332 1123 701.727 1123.69 701.727C1124.01 701.727 1124.32 701.648 1124.64 701.49C1124.99 701.3 1125.26 701.127 1125.45 700.969C1125.89 701.222 1126.16 701.648 1126.25 702.248C1125.75 702.721 1125.1 703.132 1124.31 703.479C1123.52 703.826 1122.67 704 1121.75 704C1120.55 704 1119.76 703.732 1119.38 703.195C1119 702.627 1118.74 701.979 1118.58 701.253ZM1118.58 692.491L1114.84 693.486C1113.1 693.928 1111.92 694.638 1111.28 695.617C1110.65 696.596 1110.34 697.622 1110.34 698.696C1110.34 699.422 1110.61 700.164 1111.14 700.922C1111.71 701.679 1112.58 702.058 1113.75 702.058C1114.41 702.058 1115.12 701.837 1115.88 701.395C1116.64 700.953 1117.32 700.48 1117.92 699.974C1118.1 699.817 1118.26 699.659 1118.39 699.501C1118.51 699.311 1118.58 699.059 1118.58 698.743V692.491Z" fill="black"/>
<path d="M1102.77 697.748C1102.77 699.043 1102.85 699.99 1103.01 700.59C1103.2 701.158 1103.53 701.537 1104 701.727C1104.51 701.885 1105.23 701.995 1106.18 702.058C1106.34 702.185 1106.42 702.437 1106.42 702.816C1106.42 703.195 1106.34 703.463 1106.18 703.621C1105.39 703.59 1104.55 703.558 1103.67 703.527C1102.79 703.527 1101.87 703.527 1100.92 703.527C1099.98 703.527 1099.04 703.527 1098.13 703.527C1097.25 703.558 1096.41 703.59 1095.62 703.621C1095.49 703.463 1095.43 703.195 1095.43 702.816C1095.43 702.437 1095.49 702.185 1095.62 702.058C1096.6 701.964 1097.32 701.837 1097.8 701.679C1098.27 701.522 1098.59 701.158 1098.74 700.59C1098.93 699.99 1099.03 699.043 1099.03 697.748V688.513C1099.03 687.597 1098.95 686.934 1098.79 686.524C1098.63 686.082 1098.33 685.798 1097.89 685.671C1097.45 685.513 1096.8 685.387 1095.95 685.292C1095.92 685.135 1095.89 684.914 1095.86 684.629C1095.82 684.314 1095.82 684.093 1095.86 683.966C1097.5 683.745 1098.82 683.524 1099.83 683.303C1100.84 683.082 1101.68 682.845 1102.34 682.593C1102.75 682.593 1102.96 682.703 1102.96 682.924C1102.96 682.924 1102.94 683.209 1102.91 683.777C1102.88 684.345 1102.85 685.056 1102.82 685.908C1102.79 686.729 1102.77 687.534 1102.77 688.324V697.748ZM1101.92 671.747C1102.11 671.684 1102.33 671.652 1102.58 671.652C1102.74 671.652 1103.07 671.7 1103.58 671.794C1104.11 671.889 1104.65 672.205 1105.19 672.742L1105.33 673.263L1099.88 678.425C1099.53 678.772 1099.25 679.009 1099.03 679.135C1098.81 679.262 1098.62 679.325 1098.46 679.325C1098.3 679.325 1098.15 679.262 1097.99 679.135C1097.86 679.009 1097.8 678.867 1097.8 678.709C1097.8 678.457 1097.83 678.251 1097.89 678.093C1097.99 677.936 1098.13 677.699 1098.32 677.383L1101.92 671.747Z" fill="black"/>
<path d="M1070.38 672.979C1071.3 672.979 1072.41 672.963 1073.7 672.931C1075.03 672.9 1076.53 672.884 1078.2 672.884C1080.47 672.884 1082.59 673.31 1084.55 674.163C1086.54 674.983 1088.27 676.136 1089.76 677.62C1091.27 679.072 1092.44 680.777 1093.26 682.735C1094.11 684.661 1094.54 686.729 1094.54 688.939C1094.54 691.844 1094.05 694.26 1093.07 696.186C1092.12 698.08 1090.86 699.58 1089.28 700.685C1087.74 701.758 1086.06 702.516 1084.26 702.958C1082.46 703.4 1080.73 703.621 1079.05 703.621C1077.44 703.621 1076.1 703.605 1075.03 703.574C1073.95 703.574 1073.07 703.558 1072.37 703.527C1071.68 703.527 1071.03 703.527 1070.43 703.527C1069.55 703.527 1068.52 703.527 1067.35 703.527C1066.22 703.558 1065.19 703.59 1064.28 703.621C1064.15 703.463 1064.09 703.195 1064.09 702.816C1064.09 702.437 1064.15 702.185 1064.28 702.058C1065.38 701.995 1066.23 701.885 1066.83 701.727C1067.43 701.569 1067.84 701.19 1068.06 700.59C1068.29 699.99 1068.4 699.043 1068.4 697.748V678.757C1068.4 677.43 1068.29 676.483 1068.06 675.915C1067.84 675.315 1067.43 674.936 1066.83 674.778C1066.23 674.589 1065.38 674.478 1064.28 674.447C1064.15 674.289 1064.09 674.02 1064.09 673.642C1064.09 673.263 1064.15 673.01 1064.28 672.884C1065.22 672.915 1066.26 672.947 1067.4 672.979C1068.54 672.979 1069.53 672.979 1070.38 672.979ZM1072.42 699.548C1072.42 700.053 1072.53 700.495 1072.75 700.874C1072.97 701.222 1073.45 701.506 1074.17 701.727C1074.9 701.916 1076.04 702.011 1077.58 702.011C1079.26 702.011 1080.84 701.837 1082.32 701.49C1083.8 701.143 1085.11 700.527 1086.25 699.643C1087.42 698.759 1088.33 697.543 1089 695.996C1089.66 694.449 1089.99 692.476 1089.99 690.076C1089.99 688.245 1089.76 686.413 1089.28 684.582C1088.84 682.751 1088.08 681.077 1087.01 679.562C1085.97 678.015 1084.58 676.783 1082.84 675.868C1081.1 674.952 1078.96 674.494 1076.4 674.494C1075.23 674.494 1074.27 674.684 1073.51 675.062C1072.78 675.41 1072.42 675.994 1072.42 676.815V699.548Z" fill="black"/>
<path d="M34.9159 82.4925C33.3056 81.1032 32.2636 79.7613 31.79 78.4668C31.3164 77.1407 31.0796 75.8935 31.0796 74.7252C31.0796 73.9043 31.2217 73.1465 31.5058 72.4519C31.7584 71.7573 32.1531 71.2047 32.6899 70.7943C33.4161 70.2575 34.3317 69.9102 35.4368 69.7523C36.5419 69.5944 37.7417 69.5155 39.0363 69.5155H46.0931C47.3877 69.5155 48.3349 69.4366 48.9348 69.2787C49.5031 69.1208 49.8662 68.8209 50.0241 68.3788C50.182 67.9052 50.3083 67.2264 50.403 66.3423C50.5293 66.216 50.7819 66.1528 51.1608 66.1528C51.5397 66.1528 51.808 66.216 51.9659 66.3423C51.9343 67.0369 51.9028 67.8105 51.8712 68.663C51.8712 69.5155 51.8712 70.4154 51.8712 71.3626C51.8712 72.3098 51.8712 73.1781 51.8712 73.9675C51.9028 74.7252 51.9343 75.4672 51.9659 76.1935C51.808 76.3197 51.5397 76.3829 51.1608 76.3829C50.7819 76.3829 50.5293 76.3197 50.403 76.1935C50.3083 75.3725 50.182 74.7568 50.0241 74.3464C49.8662 73.9043 49.5031 73.6202 48.9348 73.4939C48.3349 73.336 47.3877 73.2571 46.0931 73.2571H38.8942C38.168 73.2571 37.5049 73.2886 36.905 73.3518C36.2735 73.4149 35.721 73.5728 35.2474 73.8254C34.7106 74.1096 34.3002 74.4884 34.016 74.9621C33.7002 75.4041 33.5424 75.8619 33.5424 76.3355C33.5424 77.2512 33.795 78.2142 34.3002 79.2246C34.7738 80.2349 35.4526 81.198 36.3367 82.1136C36.5577 82.3031 36.8261 82.4925 37.1418 82.6819C37.426 82.8398 37.8207 82.9188 38.3259 82.9188H46.0931C47.3877 82.9188 48.3349 82.8556 48.9348 82.7293C49.5031 82.5714 49.8662 82.2873 50.0241 81.8768C50.182 81.4348 50.3083 80.8191 50.403 80.0297C50.5293 79.8718 50.7819 79.7929 51.1608 79.7929C51.5397 79.7929 51.808 79.8718 51.9659 80.0297C51.9343 80.7243 51.9028 81.4506 51.8712 82.2083C51.8712 82.9661 51.8712 83.8186 51.8712 84.7658C51.8712 85.7131 51.8712 86.6445 51.8712 87.5602C51.9028 88.4442 51.9343 89.2494 51.9659 89.9756C51.808 90.1019 51.5397 90.165 51.1608 90.165C50.7819 90.165 50.5293 90.1019 50.403 89.9756C50.3083 89.0284 50.182 88.3179 50.0241 87.8443C49.8662 87.3707 49.5031 87.055 48.9348 86.8971C48.3349 86.7392 47.3877 86.6603 46.0931 86.6603H36.8577C35.942 86.6603 35.279 86.7392 34.8685 86.8971C34.4264 87.055 34.1265 87.3549 33.9686 87.797C33.8108 88.239 33.7002 88.8863 33.6371 89.7388C33.4792 89.7704 33.2582 89.8019 32.974 89.8335C32.6583 89.8651 32.4373 89.8651 32.311 89.8335C32.09 88.1917 31.8689 86.976 31.6479 86.1867C31.4269 85.3973 31.1901 84.6711 30.9375 84.0081C30.9375 83.8186 30.9849 83.6923 31.0796 83.6292C31.1427 83.566 31.2217 83.5029 31.3164 83.4397C31.569 83.3134 32.0742 83.2345 32.832 83.2029C33.5897 83.1398 34.2844 83.0924 34.9159 83.0608C35.1369 83.0608 35.2316 83.0135 35.2 82.9188C35.1684 82.7925 35.0737 82.6504 34.9159 82.4925Z" fill="black"/>
<path d="M42.1651 110.763C40.6811 110.763 39.276 110.542 37.9499 110.1C36.5922 109.658 35.4082 109.011 34.3978 108.158C33.3875 107.274 32.5823 106.2 31.9824 104.937C31.3825 103.675 31.0825 102.269 31.0825 100.722C31.0825 98.9226 31.3983 97.3913 32.0298 96.1283C32.6613 94.8338 33.5138 93.8076 34.5873 93.0498C35.6292 92.2605 36.7817 91.6921 38.0447 91.3448C39.276 90.9659 40.5074 90.7765 41.7388 90.7765C43.1912 90.7765 44.6279 91.0291 46.0487 91.5343C47.438 92.0394 48.6536 92.813 49.6955 93.855C50.4849 94.6759 51.1322 95.6705 51.6374 96.8387C52.111 97.9754 52.3478 99.3015 52.3478 100.817C52.3478 103.059 51.8426 104.922 50.8322 106.406C49.7903 107.858 48.4957 108.947 46.9486 109.674C45.3699 110.4 43.7754 110.763 42.1651 110.763ZM32.7402 101.433C32.7402 102.854 33.1507 103.943 33.9716 104.701C34.7925 105.458 35.8345 105.979 37.0974 106.264C38.3604 106.548 39.6865 106.69 41.0758 106.69C41.9914 106.69 43.0018 106.579 44.1069 106.358C45.212 106.137 46.2697 105.774 47.2801 105.269C48.2589 104.764 49.0798 104.101 49.7429 103.28C50.3744 102.427 50.6901 101.385 50.6901 100.154C50.6901 99.3962 50.4849 98.6069 50.0744 97.7859C49.664 96.965 48.922 96.2704 47.8484 95.702C46.7749 95.1337 45.2436 94.8495 43.2544 94.8495C39.8444 94.8495 37.2395 95.4337 35.4398 96.6019C33.6401 97.7702 32.7402 99.3804 32.7402 101.433ZM20.0947 99.9172C20.0316 99.7278 20 99.5067 20 99.2541C20 99.0963 20.0474 98.7647 20.1421 98.2596C20.2368 97.7228 20.5525 97.186 21.0893 96.6493L21.6103 96.5072L26.7727 101.954C27.12 102.301 27.3568 102.585 27.4831 102.806C27.6094 103.027 27.6725 103.217 27.6725 103.375C27.6725 103.532 27.6094 103.69 27.4831 103.848C27.3568 103.974 27.2147 104.038 27.0568 104.038C26.8042 104.038 26.599 104.006 26.4411 103.943C26.2833 103.848 26.0465 103.706 25.7307 103.517L20.0947 99.9172Z" fill="black"/>
<path d="M46.1147 114.622C47.4092 114.622 48.3565 114.543 48.9564 114.385C49.5247 114.196 49.9036 113.864 50.093 113.391C50.2509 112.886 50.3614 112.159 50.4246 111.212C50.5509 111.054 50.8034 110.975 51.1823 110.975C51.5612 110.975 51.8296 111.054 51.9875 111.212C51.9559 112.002 51.9243 112.838 51.8928 113.722C51.8928 114.606 51.8928 115.522 51.8928 116.469C51.8928 117.417 51.8928 118.348 51.8928 119.264C51.9243 120.148 51.9559 120.984 51.9875 121.774C51.8296 121.9 51.5612 121.963 51.1823 121.963C50.8034 121.963 50.5509 121.9 50.4246 121.774C50.3298 120.795 50.2035 120.069 50.0457 119.595C49.8878 119.122 49.5247 118.806 48.9564 118.648C48.3565 118.459 47.4092 118.364 46.1147 118.364H36.8792C35.9636 118.364 35.3005 118.443 34.8901 118.601C34.448 118.758 34.1638 119.058 34.0376 119.5C33.8797 119.943 33.7534 120.59 33.6587 121.442C33.5008 121.474 33.2798 121.505 32.9956 121.537C32.6799 121.569 32.4588 121.569 32.3325 121.537C32.1115 119.895 31.8905 118.569 31.6695 117.559C31.4485 116.548 31.2117 115.712 30.9591 115.048C30.9591 114.638 31.0696 114.433 31.2906 114.433C31.2906 114.433 31.5748 114.449 32.1431 114.48C32.7114 114.512 33.4219 114.543 34.2744 114.575C35.0953 114.606 35.9004 114.622 36.6898 114.622H46.1147ZM23.5233 118.932C22.955 118.932 22.434 118.664 21.9604 118.127C21.4868 117.59 21.25 117.038 21.25 116.469C21.25 115.838 21.5184 115.301 22.0551 114.859C22.5919 114.417 23.1445 114.196 23.7128 114.196C24.218 114.196 24.7232 114.449 25.2283 114.954C25.7335 115.427 25.9861 115.996 25.9861 116.659C25.9861 117.227 25.7335 117.748 25.2283 118.222C24.6916 118.695 24.1233 118.932 23.5233 118.932Z" fill="black"/>
<path d="M47.552 122.235C49.4781 123.403 50.7568 124.634 51.3883 125.929C52.0198 127.192 52.3355 128.534 52.3355 129.954C52.3355 132.922 51.3883 135.227 49.4939 136.869C47.5678 138.511 45.0735 139.332 42.0108 139.332C39.769 139.332 37.8272 138.858 36.1853 137.911C34.5435 136.932 33.2805 135.701 32.3964 134.217C31.5124 132.701 31.0703 131.17 31.0703 129.623C31.0703 127.35 31.4966 125.581 32.3491 124.318C33.2016 123.024 34.2751 122.377 35.5696 122.377C36.2958 122.377 36.8326 122.645 37.1799 123.182C37.4957 123.687 37.6535 124.192 37.6535 124.697C37.6535 125.203 37.5272 125.613 37.2746 125.929C37.022 126.245 36.58 126.434 35.9485 126.497C35.3802 126.56 34.8434 126.687 34.3382 126.876C33.8331 127.034 33.4226 127.334 33.1068 127.776C32.7911 128.218 32.6332 128.913 32.6332 129.86C32.6332 131.407 33.3752 132.701 34.8592 133.743C36.3116 134.754 38.3482 135.259 40.9688 135.259C42.8001 135.259 44.3946 134.975 45.7523 134.406C47.11 133.807 48.1677 133.033 48.9255 132.086C49.6517 131.107 50.0148 130.049 50.0148 128.913C50.0148 127.902 49.7622 126.908 49.2571 125.929C48.7203 124.918 47.9309 124.019 46.889 123.229C46.9521 122.724 47.1732 122.392 47.552 122.235Z" fill="black"/>
<path d="M34.9159 155.671C33.3056 154.282 32.2636 152.94 31.79 151.646C31.3164 150.32 31.0796 149.072 31.0796 147.904C31.0796 147.083 31.2217 146.325 31.5058 145.631C31.7584 144.936 32.1531 144.384 32.6899 143.973C33.4161 143.436 34.3317 143.089 35.4368 142.931C36.5419 142.773 37.7417 142.694 39.0363 142.694H46.0931C47.3877 142.694 48.3349 142.615 48.9348 142.458C49.5031 142.3 49.8662 142 50.0241 141.558C50.182 141.084 50.3083 140.405 50.403 139.521C50.5293 139.395 50.7819 139.332 51.1608 139.332C51.5397 139.332 51.808 139.395 51.9659 139.521C51.9343 140.216 51.9028 140.989 51.8712 141.842C51.8712 142.694 51.8712 143.594 51.8712 144.541C51.8712 145.489 51.8712 146.357 51.8712 147.146C51.9028 147.904 51.9343 148.646 51.9659 149.372C51.808 149.499 51.5397 149.562 51.1608 149.562C50.7819 149.562 50.5293 149.499 50.403 149.372C50.3083 148.551 50.182 147.936 50.0241 147.525C49.8662 147.083 49.5031 146.799 48.9348 146.673C48.3349 146.515 47.3877 146.436 46.0931 146.436H38.8942C38.168 146.436 37.5049 146.467 36.905 146.531C36.2735 146.594 35.721 146.752 35.2474 147.004C34.7106 147.288 34.3002 147.667 34.016 148.141C33.7002 148.583 33.5424 149.041 33.5424 149.514C33.5424 150.43 33.795 151.393 34.3002 152.403C34.7738 153.414 35.4526 154.377 36.3367 155.292C36.5577 155.482 36.8261 155.671 37.1418 155.861C37.426 156.019 37.8207 156.098 38.3259 156.098H46.0931C47.3877 156.098 48.3349 156.034 48.9348 155.908C49.5031 155.75 49.8662 155.466 50.0241 155.056C50.182 154.614 50.3083 153.998 50.403 153.209C50.5293 153.051 50.7819 152.972 51.1608 152.972C51.5397 152.972 51.808 153.051 51.9659 153.209C51.9343 153.903 51.9028 154.629 51.8712 155.387C51.8712 156.145 51.8712 156.997 51.8712 157.945C51.8712 158.892 51.8712 159.823 51.8712 160.739C51.9028 161.623 51.9343 162.428 51.9659 163.154C51.808 163.281 51.5397 163.344 51.1608 163.344C50.7819 163.344 50.5293 163.281 50.403 163.154C50.3083 162.207 50.182 161.497 50.0241 161.023C49.8662 160.55 49.5031 160.234 48.9348 160.076C48.3349 159.918 47.3877 159.839 46.0931 159.839H36.8577C35.942 159.839 35.279 159.918 34.8685 160.076C34.4264 160.234 34.1265 160.534 33.9686 160.976C33.8108 161.418 33.7002 162.065 33.6371 162.918C33.4792 162.949 33.2582 162.981 32.974 163.012C32.6583 163.044 32.4373 163.044 32.311 163.012C32.09 161.37 31.8689 160.155 31.6479 159.366C31.4269 158.576 31.1901 157.85 30.9375 157.187C30.9375 156.997 30.9849 156.871 31.0796 156.808C31.1427 156.745 31.2217 156.682 31.3164 156.619C31.569 156.492 32.0742 156.413 32.832 156.382C33.5897 156.319 34.2844 156.271 34.9159 156.24C35.1369 156.24 35.2316 156.192 35.2 156.098C35.1684 155.971 35.0737 155.829 34.9159 155.671Z" fill="black"/>
<path d="M47.472 164.92C47.5035 164.383 47.7561 164.051 48.2298 163.925C49.4611 164.872 50.4557 166.009 51.2135 167.335C51.9713 168.63 52.3502 170.177 52.3502 171.976C52.3502 173.681 52.0818 175.118 51.545 176.286C51.0083 177.423 50.2663 178.402 49.3191 179.223C48.4034 180.012 47.3457 180.58 46.1459 180.928C44.9145 181.275 43.6357 181.449 42.3096 181.449C40.5099 181.449 38.9154 181.165 37.5261 180.596C36.1368 179.996 34.9844 179.223 34.0687 178.276C33.1215 177.328 32.4111 176.302 31.9375 175.197C31.4323 174.092 31.1797 173.018 31.1797 171.976C31.1797 169.766 31.5902 168.093 32.4111 166.956C33.232 165.82 34.274 165.046 35.5369 164.635C36.7999 164.193 38.0944 163.972 39.4206 163.972C39.9573 163.972 40.2257 164.272 40.2257 164.872L40.131 177.47C41.4887 177.47 42.7201 177.344 43.8252 177.091C44.8987 176.807 45.8301 176.428 46.6195 175.955C47.8193 175.229 48.6876 174.408 49.2243 173.492C49.7611 172.545 50.0295 171.645 50.0295 170.792C50.0295 169.403 49.8243 168.298 49.4138 167.477C49.0033 166.656 48.3561 165.804 47.472 164.92ZM38.5207 177.328L38.3786 168.756C38.3786 168.282 38.1576 168.045 37.7155 168.045C36.3894 168.045 35.3633 168.251 34.6371 168.661C33.9109 169.072 33.4215 169.577 33.1689 170.177C32.8847 170.777 32.7426 171.377 32.7426 171.976C32.7426 172.261 32.8058 172.655 32.9321 173.161C33.0268 173.666 33.2636 174.202 33.6425 174.771C33.9898 175.308 34.5581 175.813 35.3475 176.286C36.1368 176.76 37.1946 177.107 38.5207 177.328Z" fill="black"/>
<path d="M31.5588 193.782V191.603C30.2327 191.603 29.2223 191.619 28.5277 191.651C27.833 191.651 27.3436 191.666 27.0595 191.698C26.7437 191.698 26.5385 191.714 26.4438 191.745C26.3175 191.745 26.1912 191.745 26.0649 191.745C25.907 191.745 25.7807 191.651 25.686 191.461C25.5913 191.24 25.4965 190.987 25.4018 190.703C25.2439 190.167 25.0229 189.63 24.7388 189.093C24.4546 188.588 24.3125 188.241 24.3125 188.051C24.3125 187.798 24.4546 187.672 24.7388 187.672C24.7388 187.672 25.1808 187.704 26.0649 187.767C26.9489 187.83 28.1646 187.862 29.7117 187.862H31.5588V182.178C31.5588 181.926 31.6535 181.799 31.8429 181.799H32.7902C33.0112 181.799 33.1691 181.926 33.2638 182.178C33.3585 182.431 33.4059 182.683 33.4059 182.936V187.862H45.3883C46.8407 187.862 47.93 187.767 48.6562 187.577C49.3824 187.356 49.7455 186.93 49.7455 186.299C49.7455 185.667 49.6508 185.02 49.4614 184.357C49.2403 183.662 48.893 183.015 48.4194 182.415C48.451 181.941 48.7194 181.657 49.2245 181.563C50.2665 182.478 51.0558 183.504 51.5926 184.641C52.0978 185.746 52.3504 186.851 52.3504 187.956C52.3504 189.03 51.9873 189.914 51.2611 190.609C50.5349 191.272 49.3351 191.603 47.6616 191.603H33.4059V194.397C33.4059 194.555 33.3111 194.634 33.1217 194.634H32.506C32.3166 194.634 32.1113 194.571 31.8903 194.445C31.6693 194.319 31.5588 194.098 31.5588 193.782Z" fill="black"/>
<path d="M47.472 196.352C47.5035 195.815 47.7561 195.483 48.2298 195.357C49.4611 196.304 50.4557 197.441 51.2135 198.767C51.9713 200.062 52.3502 201.609 52.3502 203.409C52.3502 205.114 52.0818 206.55 51.545 207.718C51.0083 208.855 50.2663 209.834 49.3191 210.655C48.4034 211.444 47.3457 212.013 46.1459 212.36C44.9145 212.707 43.6357 212.881 42.3096 212.881C40.5099 212.881 38.9154 212.597 37.5261 212.028C36.1368 211.428 34.9844 210.655 34.0687 209.708C33.1215 208.76 32.4111 207.734 31.9375 206.629C31.4323 205.524 31.1797 204.451 31.1797 203.409C31.1797 201.198 31.5902 199.525 32.4111 198.388C33.232 197.252 34.274 196.478 35.5369 196.068C36.7999 195.626 38.0944 195.405 39.4206 195.405C39.9573 195.405 40.2257 195.704 40.2257 196.304L40.131 208.903C41.4887 208.903 42.7201 208.776 43.8252 208.524C44.8987 208.239 45.8301 207.861 46.6195 207.387C47.8193 206.661 48.6876 205.84 49.2243 204.924C49.7611 203.977 50.0295 203.077 50.0295 202.225C50.0295 200.835 49.8243 199.73 49.4138 198.909C49.0033 198.088 48.3561 197.236 47.472 196.352ZM38.5207 208.76L38.3786 200.188C38.3786 199.714 38.1576 199.478 37.7155 199.478C36.3894 199.478 35.3633 199.683 34.6371 200.093C33.9109 200.504 33.4215 201.009 33.1689 201.609C32.8847 202.209 32.7426 202.809 32.7426 203.409C32.7426 203.693 32.8058 204.087 32.9321 204.593C33.0268 205.098 33.2636 205.635 33.6425 206.203C33.9898 206.74 34.5581 207.245 35.3475 207.718C36.1368 208.192 37.1946 208.539 38.5207 208.76Z" fill="black"/>
<path d="M46.1093 231.111C47.4038 231.111 48.3511 231.001 48.951 230.78C49.5509 230.559 49.9298 230.148 50.0877 229.548C50.2455 228.948 50.356 228.096 50.4192 226.991C50.5455 226.833 50.7981 226.754 51.177 226.754C51.5559 226.754 51.8242 226.833 51.9821 226.991C51.9505 228.033 51.919 229.09 51.8874 230.164C51.8874 231.237 51.8874 232.216 51.8874 233.1C51.8874 234.016 51.8874 235.01 51.8874 236.084C51.919 237.126 51.9505 238.184 51.9821 239.257C51.8242 239.384 51.5559 239.447 51.177 239.447C50.7981 239.447 50.5455 239.384 50.4192 239.257C50.356 238.152 50.2455 237.3 50.0877 236.7C49.9298 236.1 49.5509 235.689 48.951 235.468C48.3511 235.247 47.4038 235.137 46.1093 235.137H27.1174C25.7913 235.137 24.8441 235.247 24.2757 235.468C23.6758 235.689 23.2969 236.1 23.1391 236.7C22.9496 237.3 22.8391 238.152 22.8075 239.257C22.6497 239.384 22.3813 239.447 22.0024 239.447C21.6235 239.447 21.3709 239.384 21.2446 239.257C21.2762 238.152 21.3078 237.063 21.3393 235.989C21.3393 234.916 21.3393 233.969 21.3393 233.148C21.3393 232.295 21.292 231.379 21.1973 230.401C21.071 229.39 21.0078 228.333 21.0078 227.227C21.0078 225.743 21.1183 224.291 21.3393 222.87C21.5604 221.449 22.2076 220.171 23.2812 219.034C24.8599 217.361 26.8333 216.524 29.2013 216.524C30.4327 216.524 31.522 216.761 32.4692 217.234C33.4165 217.676 34.2216 218.245 34.8847 218.939C35.5162 219.602 36.0371 220.297 36.4476 221.023C36.8581 221.718 37.1422 222.318 37.3001 222.823L47.246 216.855C48.2879 216.224 49.1562 215.577 49.8508 214.914C50.5455 214.25 50.8928 213.382 50.8928 212.309C51.3033 212.088 51.6821 212.072 52.0295 212.261C52.1558 212.482 52.2347 212.782 52.2663 213.161C52.3294 213.54 52.361 213.903 52.361 214.25C52.361 215.671 51.9347 216.903 51.0822 217.945C50.2297 218.955 49.2509 219.808 48.1458 220.502L39.905 225.57C39.5261 225.791 39.2103 226.075 38.9577 226.422C38.6736 226.77 38.4683 227.306 38.342 228.033C38.1842 228.759 38.1052 229.785 38.1052 231.111H46.1093ZM22.6181 227.18C22.6181 228.285 22.776 229.122 23.0917 229.69C23.4075 230.259 23.8021 230.637 24.2757 230.827C24.7178 231.016 25.1756 231.111 25.6492 231.111H36.495V228.838C36.495 227.291 36.3055 225.933 35.9266 224.765C35.5477 223.565 34.8373 222.618 33.7954 221.923C32.7218 221.228 31.2063 220.881 29.2487 220.881C27.3858 220.881 25.9807 221.213 25.0335 221.876C24.0863 222.507 23.4548 223.312 23.1391 224.291C22.7918 225.238 22.6181 226.201 22.6181 227.18Z" fill="black"/>
<path d="M166.891 656.437H163.508V646.288H166.891V656.437Z" fill="#D2D2D2"/>
<path d="M583 656.437H579.617V646.288H583V656.437Z" fill="#D2D2D2"/>
<path d="M373.258 656.165H369.875V646.016H373.258V656.165Z" fill="#D2D2D2"/>
<path d="M999.094 656.437H995.711V646.288H999.094V656.437Z" fill="#D2D2D2"/>
<path d="M273.828 656.71H270.445V646.016H273.828V656.71Z" fill="#D2D2D2"/>
<path d="M785.977 656.437H782.594V646.288H785.977V656.437Z" fill="#D2D2D2"/>
<path d="M681.102 656.165H677.719V646.016H681.102V656.165Z" fill="#D2D2D2"/>
<path d="M1100.58 656.437H1097.2V646.288H1100.58V656.437Z" fill="#D2D2D2"/>
<path d="M478.125 656.437H474.742V646.288H478.125V656.437Z" fill="#D2D2D2"/>
<path d="M894.219 656.437H890.836V646.288H894.219V656.437Z" fill="#D2D2D2"/>
<path d="M275.156 65.5562H271.773V54H275.156V65.5562ZM275.156 111.788H271.773V88.6719H275.156V111.788ZM275.156 158.016H271.773V134.9H275.156V158.016ZM275.156 204.244H271.773V181.128H275.156V204.244ZM275.156 250.472H271.773V227.36H275.156V250.472ZM275.156 296.7H271.773L271.773 273.588H275.156L275.156 296.7ZM275.156 342.932H271.773V319.816H275.156V342.932ZM275.156 389.16H271.773V366.044H275.156V389.16ZM275.156 435.388H271.773V412.272H275.156V435.388ZM275.156 481.616H271.773V458.504H275.156V481.616ZM275.156 527.844H271.773V504.732H275.156V527.844ZM275.156 574.076H271.773V550.96H275.156V574.076ZM275.156 620.304H271.773V597.188H275.156V620.304ZM275.156 654.976H271.773V643.416H275.156V654.976Z" fill="#D2D2D2"/>
<path d="M478.125 65.5562H474.742V54H478.125V65.5562ZM478.125 111.788H474.742V88.6719H478.125V111.788ZM478.125 158.016H474.742V134.9H478.125V158.016ZM478.125 204.244H474.742V181.128H478.125V204.244ZM478.125 250.472H474.742V227.36H478.125V250.472ZM478.125 296.7H474.742L474.742 273.588H478.125L478.125 296.7ZM478.125 342.932H474.742V319.816H478.125V342.932ZM478.125 389.16H474.742V366.044H478.125V389.16ZM478.125 435.388H474.742V412.272H478.125V435.388ZM478.125 481.616H474.742V458.504H478.125V481.616ZM478.125 527.844H474.742V504.732H478.125V527.844ZM478.125 574.076H474.742V550.96H478.125V574.076ZM478.125 620.304H474.742V597.188H478.125V620.304ZM478.125 654.976H474.742V643.416H478.125V654.976Z" fill="#D2D2D2"/>
<path d="M999.094 65.5562H995.711V54H999.094V65.5562ZM999.094 111.788H995.711V88.6719H999.094V111.788ZM999.094 158.016H995.711V134.9H999.094V158.016ZM999.094 204.244H995.711V181.128H999.094V204.244ZM999.094 250.472H995.711V227.36H999.094V250.472ZM999.094 296.7H995.711V273.588H999.094V296.7ZM999.094 342.932H995.711V319.816H999.094V342.932ZM999.094 389.16H995.711V366.044H999.094V389.16ZM999.094 435.388H995.711V412.272H999.094V435.388ZM999.094 481.616H995.711V458.504H999.094V481.616ZM999.094 527.844H995.711L995.711 504.732H999.094L999.094 527.844ZM999.094 574.076H995.711V550.96H999.094V574.076ZM999.094 620.304H995.711V597.188H999.094V620.304ZM999.094 654.976H995.711V643.416H999.094V654.976Z" fill="#D2D2D2"/>
<path d="M165.195 57.3796C165.284 106.747 186.477 168.685 229.438 233.894C272.382 299.077 337.009 367.42 423.78 429.573C597.309 553.872 859.366 653.393 1213.49 653.393V656.776C858.719 656.776 595.958 557.066 421.807 432.322C334.739 369.955 269.81 301.322 226.614 235.758C183.435 170.219 161.902 107.636 161.812 57.3862L165.195 57.3796Z" fill="#4390FF" fill-opacity="0.3"/>
<path d="M274.445 57.3796C274.533 106.363 310.185 155.57 371.177 201.951C432.092 248.274 517.905 291.485 617.451 328.534C816.538 402.629 1070.19 451.951 1288.53 452.379L1288.52 455.762C1069.76 455.333 815.708 405.928 616.272 331.703C516.559 294.591 430.407 251.243 369.128 204.644C307.926 158.102 271.153 108.02 271.062 57.3862L274.445 57.3796Z" fill="#4390FF" fill-opacity="0.3"/>
<path d="M477.735 57.3796C477.822 106.115 515.696 142.848 580.452 170.5C645.127 198.119 735.992 216.381 840.658 228.463C1049.96 252.623 1313.86 252.003 1532.45 252.431L1532.45 255.814C1313.93 255.386 1049.81 256.013 840.272 231.826C735.519 219.734 644.26 201.424 579.124 173.609C514.069 145.829 474.443 108.267 474.352 57.3862L477.735 57.3796Z" fill="#4390FF" fill-opacity="0.3"/>
<path d="M171.075 63.5238C170.511 120.769 171.062 174.646 277.711 299.238V63.5238C274.323 113.473 333.555 193.167 475.737 272.299V63.5238C463.889 121.891 555.292 213.371 1002.15 245.361V63.5238C1032.62 114.034 1153.14 204.952 1330.53 204.952" stroke="#4390FF" stroke-width="12" stroke-linecap="round"/>
<g filter="url(#filter0_d_5404_12080)">
<rect x="135" y="30" width="83" height="83" rx="7" fill="white"/>
<rect x="135.5" y="30.5" width="82" height="82" rx="6.5" stroke="#D2D2D2"/>
<path d="M199.166 49.6457C202.851 50.0221 205.725 53.1246 205.725 56.9114V93.4114L205.691 94.1528C205.337 97.5861 202.611 100.324 199.178 100.666L198.436 100.7H176.536L175.795 100.666C174.415 100.529 173.16 99.9928 172.122 99.2058L186.95 95.2364H198.448C199.451 95.2364 200.273 94.4152 200.273 93.4114V56.9114C200.273 55.9077 199.451 55.0864 198.448 55.0864H190.384L188.924 49.6114H198.448L199.189 49.6457H199.166ZM173.913 40.1785C177.563 39.5853 181.144 41.8438 182.125 45.4938L191.57 80.7505L191.729 81.4805C192.277 84.891 190.349 88.233 187.121 89.4649L186.414 89.693L165.256 95.3619L164.526 95.5102C161.115 96.0577 157.773 94.13 156.541 90.9021L156.313 90.1949L146.869 54.9382C145.888 51.2882 147.861 47.5469 151.317 46.2352L152.024 46.0071L173.183 40.3382L173.913 40.1785ZM174.597 45.6307L153.45 51.2996C152.481 51.5619 151.899 52.5657 152.161 53.5352L161.606 88.7919C161.868 89.7614 162.872 90.3432 163.841 90.0808L184.988 84.4119C185.958 84.1496 186.54 83.1458 186.277 82.1763L176.833 46.9196C176.571 45.95 175.567 45.3683 174.597 45.6307Z" fill="black"/>
</g>
<g filter="url(#filter1_d_5404_12080)">
<rect x="245" y="30" width="83" height="83" rx="7" fill="white"/>
<rect x="245.5" y="30.5" width="82" height="82" rx="6.5" stroke="#D2D2D2"/>
<path d="M309.166 49.6457C312.851 50.0221 315.725 53.1246 315.725 56.9114V93.4114L315.691 94.1528C315.337 97.5861 312.611 100.324 309.178 100.666L308.436 100.7H286.536L285.795 100.666C284.415 100.529 283.16 99.9928 282.122 99.2058L296.95 95.2364H308.448C309.451 95.2364 310.273 94.4152 310.273 93.4114V56.9114C310.273 55.9077 309.451 55.0864 308.448 55.0864H300.384L298.924 49.6114H308.448L309.189 49.6457H309.166ZM283.913 40.1785C287.563 39.5853 291.144 41.8438 292.125 45.4938L301.57 80.7505L301.729 81.4805C302.277 84.891 300.349 88.233 297.121 89.4649L296.414 89.693L275.256 95.3619L274.526 95.5102C271.115 96.0577 267.773 94.13 266.541 90.9021L266.313 90.1949L256.869 54.9382C255.888 51.2882 257.861 47.5469 261.317 46.2352L262.024 46.0071L283.183 40.3382L283.913 40.1785ZM284.597 45.6307L263.45 51.2996C262.481 51.5619 261.899 52.5657 262.161 53.5352L271.606 88.7919C271.868 89.7614 272.872 90.3432 273.841 90.0808L294.988 84.4119C295.958 84.1496 296.54 83.1458 296.277 82.1763L286.833 46.9196C286.571 45.95 285.567 45.3683 284.597 45.6307Z" fill="black"/>
</g>
<g filter="url(#filter2_d_5404_12080)">
<rect x="436" y="30" width="83" height="83" rx="7" fill="white"/>
<rect x="436.5" y="30.5" width="82" height="82" rx="6.5" stroke="#D2D2D2"/>
<path d="M500.166 49.6457C503.851 50.0221 506.725 53.1246 506.725 56.9114V93.4114L506.691 94.1528C506.337 97.5861 503.611 100.324 500.178 100.666L499.436 100.7H477.536L476.795 100.666C475.415 100.529 474.16 99.9928 473.122 99.2058L487.95 95.2364H499.448C500.451 95.2364 501.273 94.4152 501.273 93.4114V56.9114C501.273 55.9077 500.451 55.0864 499.448 55.0864H491.384L489.924 49.6114H499.448L500.189 49.6457H500.166ZM474.913 40.1785C478.563 39.5853 482.144 41.8438 483.125 45.4938L492.57 80.7505L492.729 81.4805C493.277 84.891 491.349 88.233 488.121 89.4649L487.414 89.693L466.256 95.3619L465.526 95.5102C462.115 96.0577 458.773 94.13 457.541 90.9021L457.313 90.1949L447.869 54.9382C446.888 51.2882 448.861 47.5469 452.317 46.2352L453.024 46.0071L474.183 40.3382L474.913 40.1785ZM475.597 45.6307L454.45 51.2996C453.481 51.5619 452.899 52.5657 453.161 53.5352L462.606 88.7919C462.868 89.7614 463.872 90.3432 464.841 90.0808L485.988 84.4119C486.958 84.1496 487.54 83.1458 487.277 82.1763L477.833 46.9196C477.571 45.95 476.567 45.3683 475.597 45.6307Z" fill="black"/>
</g>
<g filter="url(#filter3_d_5404_12080)">
<rect x="961" y="30" width="83" height="83" rx="7" fill="white"/>
<rect x="961.5" y="30.5" width="82" height="82" rx="6.5" stroke="#D2D2D2"/>
<path d="M1025.17 49.6457C1028.85 50.0221 1031.72 53.1246 1031.72 56.9114V93.4114L1031.69 94.1528C1031.34 97.5861 1028.61 100.324 1025.18 100.666L1024.44 100.7H1002.54L1001.79 100.666C1000.41 100.529 999.16 99.9928 998.122 99.2058L1012.95 95.2364H1024.45C1025.45 95.2364 1026.27 94.4152 1026.27 93.4114V56.9114C1026.27 55.9077 1025.45 55.0864 1024.45 55.0864H1016.38L1014.92 49.6114H1024.45L1025.19 49.6457H1025.17ZM999.913 40.1785C1003.56 39.5853 1007.14 41.8438 1008.13 45.4938L1017.57 80.7505L1017.73 81.4805C1018.28 84.891 1016.35 88.233 1013.12 89.4649L1012.41 89.693L991.256 95.3619L990.526 95.5102C987.115 96.0577 983.773 94.13 982.541 90.9021L982.313 90.1949L972.869 54.9382C971.888 51.2882 973.861 47.5469 977.317 46.2352L978.024 46.0071L999.183 40.3382L999.913 40.1785ZM1000.6 45.6307L979.45 51.2996C978.481 51.5619 977.899 52.5657 978.161 53.5352L987.606 88.7919C987.868 89.7614 988.872 90.3432 989.841 90.0808L1010.99 84.4119C1011.96 84.1496 1012.54 83.1458 1012.28 82.1763L1002.83 46.9196C1002.57 45.95 1001.57 45.3683 1000.6 45.6307Z" fill="black"/>
</g>
</g>
<rect x="0.5" y="0.5" width="1212" height="951" rx="30.5" stroke="#D2D2D2"/>
<defs>
<filter id="filter0_d_5404_12080" x="91" y="-12" width="183" height="183" filterUnits="userSpaceOnUse" color-interpolation-filters="sRGB">
<feFlood flood-opacity="0" result="BackgroundImageFix"/>
<feColorMatrix in="SourceAlpha" type="matrix" values="0 0 0 0 0 0 0 0 0 0 0 0 0 0 0 0 0 0 127 0" result="hardAlpha"/>
<feOffset dx="6" dy="8"/>
<feGaussianBlur stdDeviation="25"/>
<feComposite in2="hardAlpha" operator="out"/>
<feColorMatrix type="matrix" values="0 0 0 0 0 0 0 0 0 0 0 0 0 0 0 0 0 0 0.12 0"/>
<feBlend mode="normal" in2="BackgroundImageFix" result="effect1_dropShadow_5404_12080"/>
<feBlend mode="normal" in="SourceGraphic" in2="effect1_dropShadow_5404_12080" result="shape"/>
</filter>
<filter id="filter1_d_5404_12080" x="201" y="-12" width="183" height="183" filterUnits="userSpaceOnUse" color-interpolation-filters="sRGB">
<feFlood flood-opacity="0" result="BackgroundImageFix"/>
<feColorMatrix in="SourceAlpha" type="matrix" values="0 0 0 0 0 0 0 0 0 0 0 0 0 0 0 0 0 0 127 0" result="hardAlpha"/>
<feOffset dx="6" dy="8"/>
<feGaussianBlur stdDeviation="25"/>
<feComposite in2="hardAlpha" operator="out"/>
<feColorMatrix type="matrix" values="0 0 0 0 0 0 0 0 0 0 0 0 0 0 0 0 0 0 0.12 0"/>
<feBlend mode="normal" in2="BackgroundImageFix" result="effect1_dropShadow_5404_12080"/>
<feBlend mode="normal" in="SourceGraphic" in2="effect1_dropShadow_5404_12080" result="shape"/>
</filter>
<filter id="filter2_d_5404_12080" x="392" y="-12" width="183" height="183" filterUnits="userSpaceOnUse" color-interpolation-filters="sRGB">
<feFlood flood-opacity="0" result="BackgroundImageFix"/>
<feColorMatrix in="SourceAlpha" type="matrix" values="0 0 0 0 0 0 0 0 0 0 0 0 0 0 0 0 0 0 127 0" result="hardAlpha"/>
<feOffset dx="6" dy="8"/>
<feGaussianBlur stdDeviation="25"/>
<feComposite in2="hardAlpha" operator="out"/>
<feColorMatrix type="matrix" values="0 0 0 0 0 0 0 0 0 0 0 0 0 0 0 0 0 0 0.12 0"/>
<feBlend mode="normal" in2="BackgroundImageFix" result="effect1_dropShadow_5404_12080"/>
<feBlend mode="normal" in="SourceGraphic" in2="effect1_dropShadow_5404_12080" result="shape"/>
</filter>
<filter id="filter3_d_5404_12080" x="917" y="-12" width="183" height="183" filterUnits="userSpaceOnUse" color-interpolation-filters="sRGB">
<feFlood flood-opacity="0" result="BackgroundImageFix"/>
<feColorMatrix in="SourceAlpha" type="matrix" values="0 0 0 0 0 0 0 0 0 0 0 0 0 0 0 0 0 0 127 0" result="hardAlpha"/>
<feOffset dx="6" dy="8"/>
<feGaussianBlur stdDeviation="25"/>
<feComposite in2="hardAlpha" operator="out"/>
<feColorMatrix type="matrix" values="0 0 0 0 0 0 0 0 0 0 0 0 0 0 0 0 0 0 0.12 0"/>
<feBlend mode="normal" in2="BackgroundImageFix" result="effect1_dropShadow_5404_12080"/>
<feBlend mode="normal" in="SourceGraphic" in2="effect1_dropShadow_5404_12080" result="shape"/>
</filter>
<clipPath id="clip0_5404_12080">
<rect width="1213" height="952" rx="31" fill="white"/>
</clipPath>
</defs>
</svg>
