<svg width="194" height="194" viewBox="0 0 194 194" fill="none" xmlns="http://www.w3.org/2000/svg">
<rect x="0.5" y="0.5" width="193" height="193" rx="9.5" fill="white" stroke="url(#paint0_linear_5474_11927)"/>
<path d="M74.2585 24.9087C65.7013 24.9087 58.7504 31.8596 58.7504 40.4167V47.063C46.5102 47.063 36.5961 56.9771 36.5961 69.2173C36.5961 73.3713 37.7315 77.2483 39.6977 80.5437C32.5806 84.2269 27.7344 91.6486 27.7344 100.233C27.7344 107.489 31.2237 113.914 36.5961 117.957C33.8268 121.668 32.1652 126.265 32.1652 131.249C32.1652 143.49 42.0793 153.404 54.3196 153.404C54.5134 153.404 54.6796 153.404 54.8734 153.404C56.8396 161.047 63.7905 166.696 72.043 166.696H80.9047C85.8064 166.696 89.7665 162.736 89.7665 157.835V110.203H74.2585C72.4307 110.203 70.9353 111.698 70.9353 113.526V114.744C75.5046 116.849 78.6893 121.474 78.6893 126.819C78.6893 134.157 72.7353 140.111 65.3967 140.111C58.0581 140.111 52.1041 134.157 52.1041 126.819C52.1041 121.446 55.2888 116.821 59.8581 114.744V113.526C59.8581 105.578 66.3106 99.1257 74.2585 99.1257H89.7665V79.1868H77.4708C75.3662 83.7561 70.7415 86.9408 65.3967 86.9408C58.0581 86.9408 52.1041 80.9868 52.1041 73.6482C52.1041 66.3096 58.0581 60.3556 65.3967 60.3556C70.7691 60.3556 75.3939 63.5403 77.4708 68.1096H89.7665V33.7704C89.7665 28.8688 85.8064 24.9087 80.9047 24.9087H74.2585ZM103.059 79.1868V134.573H118.567C120.395 134.573 121.89 133.077 121.89 131.249V130.031C117.321 127.926 114.136 123.302 114.136 117.957C114.136 110.618 120.09 104.664 127.429 104.664C134.767 104.664 140.721 110.618 140.721 117.957C140.721 123.329 137.537 127.954 132.967 130.031V131.249C132.967 139.197 126.515 145.65 118.567 145.65H103.059V157.835C103.059 162.736 107.019 166.696 111.921 166.696H120.783C129.035 166.696 135.986 161.047 137.952 153.404C138.146 153.404 138.312 153.404 138.506 153.404C150.746 153.404 160.66 143.49 160.66 131.249C160.66 126.265 158.999 121.668 156.229 117.957C161.602 113.914 165.091 107.489 165.091 100.233C165.091 91.6763 160.217 84.2269 153.128 80.5437C155.094 77.2206 156.229 73.3436 156.229 69.2173C156.229 56.9771 146.315 47.063 134.075 47.063V40.4167C134.075 31.8596 127.124 24.9087 118.567 24.9087H111.921C107.019 24.9087 103.059 28.8688 103.059 33.7704V68.1096H115.355C117.459 63.5403 122.084 60.3556 127.429 60.3556C134.767 60.3556 140.721 66.3096 140.721 73.6482C140.721 80.9868 134.767 86.9408 127.429 86.9408C122.056 86.9408 117.432 83.7561 115.355 79.1868H103.059ZM127.429 69.2173C124.992 69.2173 122.998 71.2112 122.998 73.6482C122.998 76.0852 124.992 78.0791 127.429 78.0791C129.866 78.0791 131.86 76.0852 131.86 73.6482C131.86 71.2112 129.866 69.2173 127.429 69.2173ZM122.998 117.957C122.998 120.394 124.992 122.388 127.429 122.388C129.866 122.388 131.86 120.394 131.86 117.957C131.86 115.52 129.866 113.526 127.429 113.526C124.992 113.526 122.998 115.52 122.998 117.957ZM60.9659 126.819C60.9659 129.256 62.9597 131.249 65.3967 131.249C67.8337 131.249 69.8276 129.256 69.8276 126.819C69.8276 124.382 67.8337 122.388 65.3967 122.388C62.9597 122.388 60.9659 124.382 60.9659 126.819ZM60.9659 73.6482C60.9659 76.0852 62.9597 78.0791 65.3967 78.0791C67.8337 78.0791 69.8276 76.0852 69.8276 73.6482C69.8276 71.2112 67.8337 69.2173 65.3967 69.2173C62.9597 69.2173 60.9659 71.2112 60.9659 73.6482Z" fill="url(#paint1_linear_5474_11927)"/>
<defs>
<linearGradient id="paint0_linear_5474_11927" x1="8.38272" y1="7.18518" x2="188.012" y2="188.012" gradientUnits="userSpaceOnUse">
<stop stop-color="#BDD8FF"/>
<stop offset="0.480769" stop-color="white"/>
<stop offset="1" stop-color="#A7CBFF"/>
</linearGradient>
<linearGradient id="paint1_linear_5474_11927" x1="50.3003" y1="38.321" x2="148.498" y2="159.272" gradientUnits="userSpaceOnUse">
<stop stop-color="#104593"/>
<stop offset="1" stop-color="#609EF5"/>
</linearGradient>
</defs>
</svg>
